<svg width="2342" height="91" viewBox="0 0 2342 91" fill="none" xmlns="http://www.w3.org/2000/svg">
<path d="M986.204 1.91992V66.5599H1024.35V88.3199H983.004C975.751 88.3199 970.503 86.5279 967.26 82.9439C964.103 79.3599 962.524 74.5386 962.524 68.4799V1.91992H986.204Z" fill="black"/>
<path d="M926.556 73.728H877.02V52.608H926.556V73.728ZM857.18 88.32L879.452 15.616C881.073 10.3253 883.889 6.4 887.9 3.84C891.91 1.28 896.134 0 900.572 0C905.094 0 909.318 1.28 913.244 3.84C917.254 6.4 920.07 10.3253 921.692 15.616L943.964 88.32H919.772L901.724 22.528C901.468 21.6747 901.126 21.248 900.7 21.248C900.273 21.248 899.932 21.6747 899.676 22.528L881.372 88.32H857.18Z" fill="black"/>
<path d="M805.228 1.91992H828.908V88.3199H805.228V1.91992ZM853.356 1.91992V23.6799H780.78V1.91992H853.356Z" fill="black"/>
<path d="M738.575 1.91992H762.255V88.3199H738.575V1.91992Z" fill="black"/>
<path d="M678.968 90.2399C672.483 90.2399 666.467 89.0879 660.92 86.7839C655.459 84.4799 650.637 81.2799 646.456 77.1839C642.36 73.0879 639.16 68.3093 636.856 62.8479C634.552 57.3866 633.4 51.4986 633.4 45.1839C633.4 38.8693 634.509 32.9813 636.728 27.5199C639.032 22.0586 642.232 17.2799 646.328 13.1839C650.509 9.08793 655.373 5.88792 660.92 3.58392C666.467 1.27993 672.483 0.12793 678.968 0.12793C684.088 0.12793 689.037 0.981262 693.816 2.68793C698.68 4.39459 703.032 6.91193 706.872 10.2399C710.712 13.5679 713.656 17.6639 715.704 22.5279L696.376 33.2799C695.181 31.0613 693.773 29.1413 692.152 27.5199C690.616 25.8986 688.696 24.6613 686.392 23.8079C684.088 22.8693 681.272 22.3999 677.944 22.3999C674.872 22.3999 672.099 22.9973 669.624 24.1919C667.149 25.3013 665.016 26.8799 663.224 28.9279C661.432 30.9759 660.067 33.4079 659.128 36.2239C658.189 39.0399 657.72 42.1546 657.72 45.5679C657.72 49.1519 658.189 52.3946 659.128 55.2959C660.152 58.1119 661.56 60.5439 663.352 62.5919C665.229 64.6399 667.491 66.2186 670.136 67.3279C672.781 68.3519 675.725 68.8639 678.968 68.8639C681.272 68.8639 683.32 68.7786 685.112 68.6079C686.904 68.3519 688.525 67.9679 689.976 67.4559C691.427 66.8586 692.749 66.0053 693.944 64.8959L693.816 47.1039H716.856V72.7039C714.637 76.1173 711.651 79.1466 707.896 81.7919C704.227 84.4373 699.917 86.5279 694.968 88.0639C690.104 89.5146 684.771 90.2399 678.968 90.2399Z" fill="black"/>
<path d="M589.275 1.91992H612.955V88.3199H589.275V1.91992Z" fill="black"/>
<path d="M567.53 45.4399C567.53 52.0106 566.378 57.9413 564.074 63.2319C561.77 68.4373 558.527 72.9173 554.346 76.6719C550.165 80.4266 545.173 83.3279 539.37 85.3759C533.653 87.3386 527.338 88.3199 520.426 88.3199H486.25V1.91992H520.426C529.898 1.91992 538.133 3.75459 545.13 7.42392C552.213 11.0079 557.717 16.0426 561.642 22.5279C565.567 29.0133 567.53 36.6506 567.53 45.4399ZM543.21 45.4399C543.21 41.0879 542.271 37.2906 540.394 34.0479C538.517 30.8053 535.871 28.2879 532.458 26.4959C529.045 24.6186 525.034 23.6799 520.426 23.6799H509.93V67.1999H520.426C523.925 67.1999 527.039 66.6879 529.77 65.6639C532.586 64.6399 534.975 63.1893 536.938 61.3119C538.986 59.3493 540.522 57.0453 541.546 54.3999C542.655 51.6693 543.21 48.6826 543.21 45.4399Z" fill="black"/>
<path d="M387.768 90.368C379.576 90.368 372.408 88.704 366.264 85.376C360.205 82.048 355.682 77.184 352.696 70.784L372.408 60.928C373.602 63.5733 375.437 65.536 377.912 66.816C380.472 68.0107 383.757 68.608 387.768 68.608C389.901 68.608 391.778 68.3947 393.4 67.968C395.021 67.5413 396.301 66.9013 397.24 66.048C398.264 65.1093 398.776 63.9573 398.776 62.592C398.776 60.8853 398.221 59.6053 397.112 58.752C396.088 57.8987 394.594 57.2587 392.632 56.832C390.754 56.32 388.493 55.8933 385.848 55.552C382.605 55.04 379.149 54.3147 375.48 53.376C371.81 52.352 368.312 50.8587 364.984 48.896C361.741 46.848 359.096 44.16 357.048 40.832C355 37.4187 353.976 33.152 353.976 28.032C353.976 22.7413 355.426 18.0053 358.328 13.824C361.229 9.55734 365.197 6.18667 370.232 3.71201C375.266 1.23734 380.984 0 387.384 0C394.978 0 401.762 1.664 407.736 4.992C413.794 8.32 418.274 13.184 421.176 19.584L401.464 29.44C400.269 27.3067 398.434 25.5147 395.96 24.064C393.57 22.528 390.37 21.76 386.36 21.76C384.482 21.76 382.904 21.9733 381.624 22.4C380.344 22.7413 379.362 23.3387 378.68 24.192C377.997 24.96 377.656 25.9413 377.656 27.136C377.656 28.7573 378.253 30.08 379.448 31.104C380.642 32.0427 382.264 32.8107 384.312 33.408C386.445 33.92 388.92 34.3893 391.736 34.816C394.978 35.328 398.349 36.096 401.848 37.12C405.432 38.0587 408.76 39.552 411.832 41.6C414.989 43.5627 417.549 46.208 419.512 49.536C421.474 52.864 422.456 57.1307 422.456 62.336C422.456 67.6267 420.877 72.4053 417.72 76.672C414.648 80.8533 410.466 84.1813 405.176 86.656C399.97 89.1307 394.168 90.368 387.768 90.368Z" fill="black"/>
<path d="M335.177 88.3199H290.25C282.996 88.3199 277.748 86.5279 274.505 82.9439C271.348 79.3599 269.77 74.5386 269.77 68.4799V21.7599C269.77 15.7013 271.348 10.8799 274.505 7.29592C277.748 3.71192 282.996 1.91992 290.25 1.91992H334.538V23.0399H293.45V67.1999H335.177V88.3199ZM331.594 55.6799H288.33L285.13 34.5599H331.594V55.6799Z" fill="black"/>
<path d="M214.955 1.91992V66.5599H253.099V88.3199H211.755C204.502 88.3199 199.254 86.5279 196.011 82.9439C192.854 79.3599 191.275 74.5386 191.275 68.4799V1.91992H214.955Z" fill="black"/>
<path d="M168.253 88.3199H123.325C116.071 88.3199 110.823 86.5279 107.581 82.9439C104.423 79.3599 102.845 74.5386 102.845 68.4799V21.7599C102.845 15.7013 104.423 10.8799 107.581 7.29592C110.823 3.71192 116.071 1.91992 123.325 1.91992H167.613V23.0399H126.525V67.1999H168.253V88.3199ZM164.669 55.6799H121.405L118.205 34.5599H164.669V55.6799Z" fill="black"/>
<path d="M43.392 90.3679C37.6747 90.3679 33.0667 88.9173 29.568 86.0159C26.1547 83.0293 23.552 78.5919 21.76 72.7039L0 1.91992H24.192L43.008 65.6639C43.0933 65.8346 43.1786 65.9626 43.264 66.0479C43.3493 66.1333 43.4347 66.1759 43.52 66.1759C43.6907 66.1759 43.776 66.1333 43.776 66.0479C43.8613 65.9626 43.9467 65.8346 44.032 65.6639L62.592 1.91992H86.784L65.024 72.7039C63.232 78.5919 60.6293 83.0293 57.216 86.0159C53.8027 88.9173 49.1947 90.3679 43.392 90.3679Z" fill="black"/>
<path d="M2341.52 45.8327C2341.52 54.8327 2339.89 62.6105 2336.64 69.166C2333.39 75.7216 2328.93 80.7771 2323.27 84.3327C2317.6 87.8882 2311.13 89.666 2303.85 89.666C2296.57 89.666 2290.1 87.8882 2284.43 84.3327C2278.77 80.7771 2274.31 75.7216 2271.06 69.166C2267.81 62.6105 2266.19 54.8327 2266.19 45.8327C2266.19 36.8328 2267.81 29.055 2271.06 22.4995C2274.31 15.9439 2278.77 10.8884 2284.43 7.33283C2290.1 3.77729 2296.57 1.99951 2303.85 1.99951C2311.13 1.99951 2317.6 3.77729 2323.27 7.33283C2328.93 10.8884 2333.39 15.9439 2336.64 22.4995C2339.89 29.055 2341.52 36.8328 2341.52 45.8327ZM2331.52 45.8327C2331.52 38.4439 2330.28 32.2078 2327.81 27.1245C2325.37 22.0411 2322.05 18.1939 2317.85 15.5828C2313.68 12.9717 2309.02 11.6662 2303.85 11.6662C2298.69 11.6662 2294 12.9717 2289.81 15.5828C2285.64 18.1939 2282.32 22.0411 2279.85 27.1245C2277.41 32.2078 2276.19 38.4439 2276.19 45.8327C2276.19 53.2216 2277.41 59.4577 2279.85 64.541C2282.32 69.6244 2285.64 73.4716 2289.81 76.0827C2294 78.6938 2298.69 79.9993 2303.85 79.9993C2309.02 79.9993 2313.68 78.6938 2317.85 76.0827C2322.05 73.4716 2325.37 69.6244 2327.81 64.541C2330.28 59.4577 2331.52 53.2216 2331.52 45.8327Z" fill="black"/>
<path d="M2237.07 3.1665V88.4996H2226.73V3.1665H2237.07Z" fill="black"/>
<path d="M2157 88.4996H2130.67V3.1665H2158.17C2166.44 3.1665 2173.53 4.87483 2179.42 8.29149C2185.31 11.6804 2189.82 16.5554 2192.96 22.9165C2196.1 29.2498 2197.67 36.8331 2197.67 45.6664C2197.67 54.5553 2196.08 62.208 2192.92 68.6247C2189.75 75.0136 2185.14 79.9302 2179.08 83.3747C2173.03 86.7913 2165.67 88.4996 2157 88.4996ZM2141 79.333H2156.33C2163.39 79.333 2169.24 77.9719 2173.88 75.2497C2178.51 72.5275 2181.97 68.6525 2184.25 63.6247C2186.53 58.5969 2187.67 52.6108 2187.67 45.6664C2187.67 38.7775 2186.54 32.847 2184.29 27.8748C2182.04 22.8748 2178.68 19.0415 2174.21 16.3748C2169.74 13.6804 2164.17 12.3331 2157.5 12.3331H2141V79.333Z" fill="black"/>
<path d="M2087.96 3.1665H2098.3V59.6664C2098.3 65.4997 2096.92 70.708 2094.17 75.2913C2091.45 79.8469 2087.6 83.4441 2082.63 86.083C2077.66 88.6941 2071.83 89.9996 2065.13 89.9996C2058.44 89.9996 2052.6 88.6941 2047.63 86.083C2042.66 83.4441 2038.8 79.8469 2036.05 75.2913C2033.33 70.708 2031.96 65.4997 2031.96 59.6664V3.1665H2042.3V58.833C2042.3 62.9997 2043.21 66.708 2045.05 69.958C2046.88 73.1802 2049.49 75.7219 2052.88 77.583C2056.3 79.4163 2060.38 80.333 2065.13 80.333C2069.88 80.333 2073.96 79.4163 2077.38 77.583C2080.8 75.7219 2083.41 73.1802 2085.21 69.958C2087.05 66.708 2087.96 62.9997 2087.96 58.833V3.1665Z" fill="black"/>
<path d="M1940.28 12.3331V3.1665H2004.28V12.3331H1977.45V88.4996H1967.12V12.3331H1940.28Z" fill="black"/>
<path d="M1905.06 24.4995C1904.56 20.2773 1902.53 16.9995 1898.98 14.6662C1895.42 12.3328 1891.06 11.1662 1885.89 11.1662C1882.12 11.1662 1878.81 11.7773 1875.98 12.9995C1873.17 14.2217 1870.98 15.9023 1869.39 18.0411C1867.84 20.18 1867.06 22.6106 1867.06 25.3328C1867.06 27.6106 1867.6 29.5689 1868.69 31.2078C1869.8 32.8189 1871.21 34.1661 1872.94 35.2494C1874.66 36.305 1876.46 37.18 1878.35 37.8744C1880.24 38.5411 1881.98 39.0828 1883.56 39.4994L1892.23 41.8328C1894.45 42.4161 1896.92 43.2216 1899.64 44.2494C1902.39 45.2772 1905.02 46.68 1907.52 48.4577C1910.05 50.2077 1912.13 52.4577 1913.77 55.2077C1915.41 57.9577 1916.23 61.3327 1916.23 65.3327C1916.23 69.9438 1915.02 74.1105 1912.6 77.8327C1910.21 81.5549 1906.71 84.5132 1902.1 86.7077C1897.52 88.9021 1891.95 89.9993 1885.39 89.9993C1879.28 89.9993 1873.99 89.0132 1869.52 87.041C1865.07 85.0688 1861.57 82.3188 1859.02 78.791C1856.49 75.2632 1855.06 71.166 1854.73 66.4994H1865.39C1865.67 69.7216 1866.76 72.3882 1868.64 74.4993C1870.56 76.5827 1872.98 78.1382 1875.89 79.166C1878.84 80.166 1882.01 80.666 1885.39 80.666C1889.34 80.666 1892.88 80.0271 1896.02 78.7493C1899.16 77.4438 1901.64 75.6382 1903.48 73.3327C1905.31 70.9994 1906.23 68.2771 1906.23 65.166C1906.23 62.3327 1905.44 60.0272 1903.85 58.2494C1902.27 56.4716 1900.19 55.0272 1897.6 53.9161C1895.02 52.805 1892.23 51.8327 1889.23 50.9994L1878.73 47.9994C1872.06 46.0827 1866.78 43.3466 1862.89 39.7911C1859.01 36.2355 1857.06 31.5828 1857.06 25.8328C1857.06 21.055 1858.35 16.8884 1860.94 13.3328C1863.55 9.74949 1867.05 6.97172 1871.44 4.99951C1875.85 2.99951 1880.78 1.99951 1886.23 1.99951C1891.73 1.99951 1896.62 2.98562 1900.89 4.95784C1905.17 6.90228 1908.56 9.56894 1911.06 12.9578C1913.59 16.3467 1914.92 20.1939 1915.06 24.4995H1905.06Z" fill="black"/>
<path d="M1781.21 3.1665V88.4996H1770.88V3.1665H1781.21Z" fill="black"/>
<path d="M1738.47 3.1665V88.4996H1728.47L1681.97 21.4998H1681.13V88.4996H1670.8V3.1665H1680.8L1727.47 70.333H1728.3V3.1665H1738.47Z" fill="black"/>
<path d="M1583.27 3.1665L1608.61 74.9997H1609.61L1634.94 3.1665H1645.77L1614.44 88.4996H1603.77L1572.44 3.1665H1583.27Z" fill="black"/>
<path d="M1547.32 3.1665V88.4996H1536.99V3.1665H1547.32Z" fill="black"/>
<path d="M1445.31 12.3331V3.1665H1509.31V12.3331H1482.47V88.4996H1472.14V12.3331H1445.31Z" fill="black"/>
<path d="M1372.42 88.4996H1361.58L1392.92 3.1665H1403.58L1434.92 88.4996H1424.08L1398.58 16.6665H1397.92L1372.42 88.4996ZM1376.42 55.1664H1420.08V64.333H1376.42V55.1664Z" fill="black"/>
<path d="M1287.06 88.4996V3.1665H1338.56V12.3331H1297.39V41.1664H1335.89V50.3331H1297.39V79.333H1339.23V88.4996H1287.06Z" fill="black"/>
<path d="M1200.27 88.4996V3.1665H1229.11C1235.77 3.1665 1241.25 4.30539 1245.52 6.58316C1249.8 8.83316 1252.97 11.9304 1255.02 15.8748C1257.08 19.8192 1258.11 24.3053 1258.11 29.3331C1258.11 34.3609 1257.08 38.8192 1255.02 42.7081C1252.97 46.597 1249.82 49.6525 1245.57 51.8747C1241.32 54.0692 1235.89 55.1664 1229.27 55.1664H1205.94V45.8331H1228.94C1233.5 45.8331 1237.16 45.1664 1239.94 43.8331C1242.75 42.4997 1244.77 40.6109 1246.02 38.1664C1247.3 35.6942 1247.94 32.7498 1247.94 29.3331C1247.94 25.9165 1247.3 22.9303 1246.02 20.3748C1244.75 17.8192 1242.71 15.847 1239.9 14.4581C1237.09 13.0415 1233.39 12.3331 1228.77 12.3331H1210.61V88.4996H1200.27ZM1240.44 50.1664L1261.44 88.4996H1249.44L1228.77 50.1664H1240.44Z" fill="black"/>
<path d="M1112 88.4996V3.1665H1122.33V45.4997H1123.33L1161.67 3.1665H1175.17L1139.33 41.6664L1175.17 88.4996H1162.67L1133 48.8331L1122.33 60.833V88.4996H1112Z" fill="black"/>
</svg>
